<svg xmlns="http://www.w3.org/2000/svg" version="1.1" xmlns:xlink="http://www.w3.org/1999/xlink" xmlns:svgjs="http://svgjs.com/svgjs" width="2000" height="1000" preserveAspectRatio="none" viewBox="0 0 2000 1000">
    <g mask="url(&quot;#SvgjsMask1018&quot;)" fill="none">
        <rect width="2000" height="1000" x="0" y="0" fill="url(#SvgjsLinearGradient1019)"></rect>
        <path d="M0 0L693.74 0L0 171z" fill="rgba(255, 255, 255, .1)"></path>
        <path d="M0 171L693.74 0L810.4200000000001 0L0 439.82z" fill="rgba(255, 255, 255, .075)"></path>
        <path d="M0 439.82L810.4200000000001 0L1027.44 0L0 467.74z" fill="rgba(255, 255, 255, .05)"></path>
        <path d="M0 467.74L1027.44 0L1660.9 0L0 664.83z" fill="rgba(255, 255, 255, .025)"></path>
        <path d="M2000 1000L1405.62 1000L2000 972.02z" fill="rgba(0, 0, 0, .1)"></path>
        <path d="M2000 972.02L1405.62 1000L999.3299999999999 1000L2000 953.81z" fill="rgba(0, 0, 0, .075)"></path>
        <path d="M2000 953.81L999.3299999999999 1000L684.3699999999999 1000L2000 468.78999999999996z" fill="rgba(0, 0, 0, .05)"></path>
        <path d="M2000 468.78999999999996L684.3699999999999 1000L328.26999999999987 1000L2000 177.39z" fill="rgba(0, 0, 0, .025)"></path>
    </g>
    <defs>
        <mask id="SvgjsMask1018">
            <rect width="2000" height="1000" fill="#ffffff"></rect>
        </mask>
        <linearGradient x1="87.5%" y1="-25%" x2="12.5%" y2="125%" gradientUnits="userSpaceOnUse" id="SvgjsLinearGradient1019">
            <stop stop-color="rgba(250, 250, 250, 1)" offset="0"></stop>
            <stop stop-color="rgba(169, 184, 200, 1)" offset="1"></stop>
        </linearGradient>
    </defs>
</svg>